<?xml version="1.0" encoding="utf-8"?>
<!-- Generator: Adobe Illustrator 21.0.2, SVG Export Plug-In . SVG Version: 6.00 Build 0)  -->
<svg version="1.1" id="Layer_1" xmlns="http://www.w3.org/2000/svg" xmlns:xlink="http://www.w3.org/1999/xlink" x="0px" y="0px"
	 viewBox="0 0 100 54.8" style="enable-background:new 0 0 100 54.8;" xml:space="preserve">
<style type="text/css">
	.st0{fill:#0500C4;}
	.st1{fill:#F20000;}
</style>
<path class="st0" d="M0,0v29.6h40V0H0z M33.1,4l0.5,1.4h1.5l-1.2,0.9l0.5,1.4l-1.2-0.9l-1.2,0.9l0.5-1.4l-1.2-0.9h1.5L33.1,4z
	 M34.3,13.5l-1.2-0.9l-1.2,0.9l0.5-1.4l-1.2-0.9h1.5l0.5-1.4l0.5,1.4h1.5L33.9,12L34.3,13.5z M34.3,19.2l-1.2-0.9l-1.2,0.9l0.5-1.4
	l-1.2-0.9h1.5l0.5-1.4l0.5,1.4h1.5l-1.2,0.9L34.3,19.2z M31.1,22l-1.2-0.9L28.7,22l0.5-1.4l-1.2-0.9h1.5l0.5-1.4l0.5,1.4h1.5
	l-1.2,0.9L31.1,22z M27.7,19.2l-1.2-0.9l-1.2,0.9l0.5-1.4l-1.2-0.9H26l0.5-1.4l0.5,1.4h1.5l-1.2,0.9L27.7,19.2z M24.4,22l-1.2-0.9
	L22,22l0.5-1.4l-1.2-0.9h1.5l0.5-1.4l0.5,1.4h1.5l-1.2,0.9L24.4,22z M21,19.2l-1.2-0.9l-1.2,0.9l0.5-1.4l-1.2-0.9h1.5l0.5-1.4
	l0.5,1.4h1.5l-1.2,0.9L21,19.2z M17.7,22l-1.2-0.9L15.3,22l0.5-1.4l-1.2-0.9H16l0.5-1.4l0.5,1.4h1.5l-1.2,0.9L17.7,22z M14.4,19.2
	l-1.2-0.9L12,19.2l0.5-1.4l-1.2-0.9h1.5l0.5-1.4l0.5,1.4h1.5l-1.2,0.9L14.4,19.2z M11,22l-1.2-0.9L8.6,22L9,20.6l-1.2-0.9h1.5
	l0.5-1.4l0.5,1.4h1.5l-1.2,0.9L11,22z M7.7,19.2l-1.2-0.9l-1.2,0.9l0.5-1.4l-1.2-0.9H6l0.5-1.4l0.5,1.4h1.5l-1.2,0.9L7.7,19.2z
	 M4.5,11.2H6l0.5-1.4l0.5,1.4h1.5L7.2,12l0.5,1.4l-1.2-0.9l-1.2,0.9L5.7,12L4.5,11.2z M31.1,10.5l-1.2-0.9l-1.2,0.9l0.5-1.4
	l-1.2-0.9h1.5l0.5-1.4l0.5,1.4h1.5l-1.2,0.9L31.1,10.5z M31.1,16.2l-1.2-0.9l-1.2,0.9l0.5-1.4l-1.2-0.9h1.5l0.5-1.4l0.5,1.4h1.5
	l-1.2,0.9L31.1,16.2z M28.5,11.2L27.3,12l0.5,1.4l-1.2-0.9l-1.2,0.9l0.5-1.4l-1.2-0.9H26l0.5-1.4l0.5,1.4H28.5z M24.4,16.2l-1.2-0.9
	L22,16.2l0.5-1.4l-1.2-0.9h1.5l0.5-1.4l0.5,1.4h1.5l-1.2,0.9L24.4,16.2z M23.9,9.1l0.5,1.4l-1.2-0.9L22,10.5l0.5-1.4l-1.2-0.9h1.5
	l0.5-1.4l0.5,1.4h1.5L23.9,9.1z M21.7,11.2L20.5,12l0.5,1.4l-1.2-0.9l-1.2,0.9L19,12l-1.2-0.9h1.5l0.5-1.4l0.5,1.4H21.7z M17.7,16.2
	l-1.2-0.9l-1.2,0.9l0.5-1.4l-1.2-0.9H16l0.5-1.4l0.5,1.4h1.5l-1.2,0.9L17.7,16.2z M17.2,9.1l0.5,1.4l-1.2-0.9l-1.2,0.9l0.5-1.4
	l-1.2-0.9H16l0.5-1.4L17,8.2h1.5L17.2,9.1z M15.1,11.2L13.9,12l0.5,1.4l-1.2-0.9L12,13.5l0.5-1.4l-1.2-0.9h1.5l0.5-1.4l0.5,1.4H15.1
	z M11,16.2l-1.2-0.9l-1.2,0.9L9,14.8l-1.2-0.9h1.5l0.5-1.4l0.5,1.4h1.5l-1.2,0.9L11,16.2z M10.5,9.3l0.5,1.4L9.8,9.8l-1.2,0.9L9,9.3
	L7.8,8.4h1.5L9.8,7l0.5,1.4h1.5L10.5,9.3z M29.4,2.5L29.9,1l0.5,1.4h1.5l-1.2,0.9l0.5,1.4l-1.2-0.9l-1.2,0.9l0.5-1.4l-1.2-0.9
	L29.4,2.5L29.4,2.5z M26.5,4L27,5.4h1.5l-1.2,0.9l0.5,1.4l-1.2-0.9l-1.2,0.9l0.5-1.4l-1.2-0.9H26L26.5,4z M22.7,2.5L23.2,1l0.5,1.4
	h1.5l-1.2,0.9l0.5,1.4l-1.2-0.9L22,4.8l0.5-1.4l-1.2-0.9L22.7,2.5L22.7,2.5z M19.8,4l0.5,1.4h1.5l-1.2,0.9L21,7.7l-1.2-0.9l-1.2,0.9
	L19,6.3l-1.2-0.9h1.5L19.8,4z M16,2.5L16.5,1L17,2.5h1.5l-1.2,0.9l0.5,1.4l-1.2-0.9l-1.2,0.9l0.5-1.4l-1.2-0.9H16z M13.2,4l0.5,1.4
	h1.5l-1.2,0.9l0.5,1.4l-1.2-0.9L12,7.7l0.5-1.4l-1.2-0.9h1.5L13.2,4z M9.3,2.5L9.8,1l0.5,1.4h1.5l-1.2,0.9L11,4.8L9.8,3.9L8.6,4.8
	L9,3.3L7.8,2.5H9.3z M6.5,4l0.5,1.4h1.5L7.2,6.3l0.5,1.4L6.5,6.8L5.3,7.7l0.5-1.4L4.5,5.4H6L6.5,4z M2.7,2.5L3.2,1l0.5,1.4h1.5
	L3.9,3.3l0.5,1.4L3.2,3.9L2,4.8l0.5-1.4L1.2,2.5H2.7z M2.7,8.2l0.5-1.4l0.5,1.4h1.5L3.9,9.1l0.5,1.4L3.2,9.7L2,10.5l0.5-1.4L1.2,8.2
	H2.7z M2.7,13.9l0.5-1.4l0.5,1.4h1.5l-1.2,0.9l0.5,1.4l-1.2-0.9L2,16.2l0.5-1.4l-1.2-0.9H2.7z M2.7,19.7l0.5-1.4l0.5,1.4h1.5
	l-1.2,0.9L4.4,22l-1.2-0.9L2,22l0.5-1.4l-1.2-0.9H2.7z M4.4,27.8l-1.2-0.9L2,27.8l0.5-1.4l-1.2-0.9h1.5l0.5-1.4l0.5,1.4h1.5
	l-1.2,0.9L4.4,27.8z M6.5,24l-1.2,0.9l0.5-1.4l-1.2-0.9H6l0.5-1.4l0.5,1.4h1.5l-1.2,0.9l0.5,1.4L6.5,24z M11,27.8l-1.2-0.9l-1.2,0.9
	L9,26.4l-1.2-0.9h1.5l0.5-1.4l0.5,1.4h1.5l-1.2,0.9L11,27.8z M13.2,24L12,24.9l0.5-1.4l-1.2-0.9h1.5l0.5-1.4l0.5,1.4h1.5l-1.2,0.9
	l0.5,1.4L13.2,24z M17.7,27.8l-1.2-0.9l-1.2,0.9l0.5-1.4l-1.2-0.9H16l0.5-1.4l0.5,1.4h1.5l-1.2,0.9L17.7,27.8z M19.8,23.9l-1.2,0.9
	l0.5-1.4l-1.2-0.9h1.5l0.5-1.4l0.5,1.4h1.5l-1.2,0.9l0.5,1.4L19.8,23.9z M24.4,27.9L23.2,27L22,27.9l0.5-1.4l-1.2-0.9h1.5l0.5-1.4
	l0.5,1.4h1.5l-1.2,0.9L24.4,27.9z M26.5,24l-1.2,0.9l0.5-1.4l-1.2-0.9H26l0.5-1.4l0.5,1.4h1.5l-1.2,0.9l0.5,1.4L26.5,24z M31.1,27.8
	l-1.2-0.9l-1.2,0.9l0.5-1.4l-1.2-0.9h1.5l0.5-1.4l0.5,1.4h1.5l-1.2,0.9L31.1,27.8z M33.1,24l-1.2,0.9l0.5-1.4l-1.2-0.9h1.5l0.5-1.4
	l0.5,1.4h1.5l-1.2,0.9l0.5,1.4L33.1,24z M37.7,27.8l-1.2-0.9l-1.2,0.9l0.5-1.4l-1.2-0.9H36l0.5-1.4l0.5,1.4h1.5l-1.2,0.9L37.7,27.8z
	 M37.2,20.6l0.5,1.4l-1.2-0.9L35.2,22l0.5-1.4l-1.2-0.9H36l0.5-1.4l0.5,1.4h1.5L37.2,20.6z M37.2,14.8l0.5,1.4l-1.2-0.9l-1.2,0.9
	l0.5-1.4l-1.2-0.9H36l0.5-1.4l0.5,1.4h1.5L37.2,14.8z M37.2,9.1l0.5,1.4l-1.2-0.9l-1.2,0.9l0.5-1.4l-1.2-0.9H36l0.5-1.4l0.5,1.4h1.5
	L37.2,9.1z M37.2,3.3l0.5,1.4l-1.2-0.9l-1.2,0.9l0.5-1.4l-1.2-0.9H36L36.5,1l0.5,1.4h1.5L37.2,3.3z"/>
<rect y="50.6" class="st1" width="100" height="4.2"/>
<rect y="42.2" class="st1" width="100" height="4.2"/>
<rect y="33.8" class="st1" width="100" height="4.2"/>
<rect x="43.1" y="25.4" class="st1" width="56.9" height="4.2"/>
<rect x="43.1" y="16.8" class="st1" width="56.9" height="4.2"/>
<rect x="43.1" y="8.4" class="st1" width="56.9" height="4.2"/>
<rect x="43.1" class="st1" width="56.9" height="4.2"/>
</svg>
