<?xml version="1.0" encoding="utf-8"?>
<!-- Generator: Adobe Illustrator 21.0.2, SVG Export Plug-In . SVG Version: 6.00 Build 0)  -->
<svg version="1.1"
	 id="Layer_1" xmlns:cc="http://creativecommons.org/ns#" xmlns:dc="http://purl.org/dc/elements/1.1/" xmlns:inkscape="http://www.inkscape.org/namespaces/inkscape" xmlns:rdf="http://www.w3.org/1999/02/22-rdf-syntax-ns#" xmlns:sodipodi="http://sodipodi.sourceforge.net/DTD/sodipodi-0.dtd" xmlns:svg="http://www.w3.org/2000/svg"
	 xmlns="http://www.w3.org/2000/svg" xmlns:xlink="http://www.w3.org/1999/xlink" x="0px" y="0px" viewBox="0 0 78 60"
	 style="enable-background:new 0 0 78 60;" xml:space="preserve">
<g transform="translate(0,-952.36218)">
	<path d="M0,954.7v5.4c0,1.3,1,2.3,2.3,2.3h73.4c1.3,0,2.3-1,2.3-2.3v-5.4c0-1.3-1-2.3-2.3-2.3H2.3C1,952.4,0,953.4,0,954.7z
		 M0,979.7v5.4c0,1.3,1,2.3,2.3,2.3h73.4c1.3,0,2.3-1,2.3-2.3v-5.4c0-1.3-1-2.3-2.3-2.3H2.3C1,977.4,0,978.4,0,979.7z M0,1004.7v5.4
		c0,1.3,1,2.3,2.3,2.3h73.4c1.3,0,2.3-1,2.3-2.3v-5.4c0-1.3-1-2.3-2.3-2.3H2.3C1,1002.4,0,1003.4,0,1004.7z"/>
</g>
</svg>
