<?xml version="1.0" encoding="utf-8"?>
<!-- Generator: Adobe Illustrator 21.0.2, SVG Export Plug-In . SVG Version: 6.00 Build 0)  -->
<svg version="1.1" id="Layer_1" xmlns="http://www.w3.org/2000/svg" xmlns:xlink="http://www.w3.org/1999/xlink" x="0px" y="0px"
	 viewBox="0 0 97.4 97.4" style="enable-background:new 0 0 97.4 97.4;" xml:space="preserve">
<style type="text/css">
	.st0{fill:#B5B5B5;}
	.st1{fill:#5E5E5E;}
</style>
<circle class="st0" cx="48.7" cy="48.7" r="48.7"/>
<title>Artboard 35</title>
<path class="st1" d="M79.3,72.4c0,0.9-0.7,1.7-1.6,1.7c0,0,0,0-0.1,0H20.3c-0.9,0-1.7-0.7-1.7-1.6c0,0,0,0,0-0.1
	c0-3.4,0.8-11,5.9-14.4c5.5-3.6,16.5-5.7,18.7-6.3c0.1,0,0.2,0,0.3,0v-3.3c-2.1-1.9-4.6-5.2-7-10.8c0,0-2.4-7.2-0.7-7.5
	c0,0-4.6-16.7,13.2-16.7s13.2,16.7,13.2,16.7c1.7,0.3-0.7,7.5-0.7,7.5c-2.4,5.7-4.9,9-7,10.8v3.3c0.1,0,0.2,0,0.3,0
	c2.2,0.6,13.2,2.6,18.6,6.2C78.6,61.4,79.3,69,79.3,72.4z"/>
</svg>
