<?xml version="1.0" encoding="utf-8"?>
<!-- Generator: Adobe Illustrator 21.0.2, SVG Export Plug-In . SVG Version: 6.00 Build 0)  -->
<svg version="1.1" id="Layer_1" xmlns="http://www.w3.org/2000/svg" xmlns:xlink="http://www.w3.org/1999/xlink" x="0px" y="0px"
	 viewBox="0 0 83.2 83.2" style="enable-background:new 0 0 83.2 83.2;" xml:space="preserve">
<path d="M81.6,74.6L62.4,55.4c4.3-5.8,6.9-12.9,6.9-20.7c0-19.1-15.5-34.6-34.6-34.6S0.1,15.6,0.1,34.7s15.5,34.6,34.6,34.6
	c7.7,0,14.9-2.5,20.7-6.9l19.2,19.2c0.9,1,2.2,1.5,3.5,1.5s2.6-0.5,3.5-1.4C83.6,79.7,83.6,76.6,81.6,74.6z M10.1,34.7
	c0-13.6,11-24.6,24.6-24.6s24.6,11,24.6,24.6s-11,24.6-24.6,24.6S10.1,48.3,10.1,34.7z"/>
</svg>
