<?xml version="1.0" encoding="utf-8"?>
<!-- Generator: Adobe Illustrator 21.0.2, SVG Export Plug-In . SVG Version: 6.00 Build 0)  -->
<svg version="1.1" id="Layer_1" xmlns="http://www.w3.org/2000/svg" xmlns:xlink="http://www.w3.org/1999/xlink" x="0px" y="0px"
	 viewBox="0 0 100 125" style="enable-background:new 0 0 100 125;" xml:space="preserve">
<g>
	<path d="M95.3,29.2c-0.6-0.8-1.6-1.2-2.5-1.4L11.3,11.4c-1.8-0.4-3.6,0.6-4,2.4s0.6,3.6,2.4,4l7.4,1.9l12.8,55.1
		c0.3,1.5,1.7,2.6,3.2,2.6h52.3c1.8,0,3.3-1.5,3.3-3.3s-1.5-3.3-3.3-3.3H35.8L34,62.2h54.1c1.4-0.2,2.6-1.3,2.9-2.7l5-27.8
		C96.1,30.8,95.9,30,95.3,29.2z"/>
	<circle cx="78.6" cy="88.9" r="7.8"/>
	<circle cx="40.3" cy="88.9" r="7.8"/>
</g>
</svg>
